<?xml version="1.0" encoding="utf-8" standalone="no"?>
<!DOCTYPE svg PUBLIC "-//W3C//DTD SVG 1.1//EN"
  "http://www.w3.org/Graphics/SVG/1.1/DTD/svg11.dtd">
<!-- Created with matplotlib (http://matplotlib.org/) -->
<svg height="288pt" version="1.1" viewBox="0 0 432 288" width="432pt" xmlns="http://www.w3.org/2000/svg" xmlns:xlink="http://www.w3.org/1999/xlink">
 <defs>
  <style type="text/css">
*{stroke-linecap:butt;stroke-linejoin:round;}
  </style>
 </defs>
 <g id="figure_1">
  <g id="patch_1">
   <path d="M 0 288 
L 432 288 
L 432 0 
L 0 0 
z
" style="fill:#ffffff;"/>
  </g>
  <g id="axes_1">
   <g id="patch_2">
    <path d="M 54 252 
L 388.8 252 
L 388.8 34.56 
L 54 34.56 
z
" style="fill:#ffffff;"/>
   </g>
   <g id="matplotlib.axis_1">
    <g id="xtick_1">
     <g id="line2d_1">
      <defs>
       <path d="M 0 0 
L 0 3.5 
" id="m615f453463" style="stroke:#000000;stroke-width:0.8;"/>
      </defs>
      <g>
       <use style="stroke:#000000;stroke-width:0.8;" x="63.006679" xlink:href="#m615f453463" y="252"/>
      </g>
     </g>
     <g id="text_1">
      <!-- 0 -->
      <defs>
       <path d="M 31.78125 66.40625 
Q 24.171875 66.40625 20.328125 58.90625 
Q 16.5 51.421875 16.5 36.375 
Q 16.5 21.390625 20.328125 13.890625 
Q 24.171875 6.390625 31.78125 6.390625 
Q 39.453125 6.390625 43.28125 13.890625 
Q 47.125 21.390625 47.125 36.375 
Q 47.125 51.421875 43.28125 58.90625 
Q 39.453125 66.40625 31.78125 66.40625 
z
M 31.78125 74.21875 
Q 44.046875 74.21875 50.515625 64.515625 
Q 56.984375 54.828125 56.984375 36.375 
Q 56.984375 17.96875 50.515625 8.265625 
Q 44.046875 -1.421875 31.78125 -1.421875 
Q 19.53125 -1.421875 13.0625 8.265625 
Q 6.59375 17.96875 6.59375 36.375 
Q 6.59375 54.828125 13.0625 64.515625 
Q 19.53125 74.21875 31.78125 74.21875 
z
" id="DejaVuSans-30"/>
      </defs>
      <g transform="translate(59.825429 266.598437)scale(0.1 -0.1)">
       <use xlink:href="#DejaVuSans-30"/>
      </g>
     </g>
    </g>
    <g id="xtick_2">
     <g id="line2d_2">
      <g>
       <use style="stroke:#000000;stroke-width:0.8;" x="125.121707" xlink:href="#m615f453463" y="252"/>
      </g>
     </g>
     <g id="text_2">
      <!-- 10 -->
      <defs>
       <path d="M 12.40625 8.296875 
L 28.515625 8.296875 
L 28.515625 63.921875 
L 10.984375 60.40625 
L 10.984375 69.390625 
L 28.421875 72.90625 
L 38.28125 72.90625 
L 38.28125 8.296875 
L 54.390625 8.296875 
L 54.390625 0 
L 12.40625 0 
z
" id="DejaVuSans-31"/>
      </defs>
      <g transform="translate(118.759207 266.598437)scale(0.1 -0.1)">
       <use xlink:href="#DejaVuSans-31"/>
       <use x="63.623047" xlink:href="#DejaVuSans-30"/>
      </g>
     </g>
    </g>
    <g id="xtick_3">
     <g id="line2d_3">
      <g>
       <use style="stroke:#000000;stroke-width:0.8;" x="187.236735" xlink:href="#m615f453463" y="252"/>
      </g>
     </g>
     <g id="text_3">
      <!-- 20 -->
      <defs>
       <path d="M 19.1875 8.296875 
L 53.609375 8.296875 
L 53.609375 0 
L 7.328125 0 
L 7.328125 8.296875 
Q 12.9375 14.109375 22.625 23.890625 
Q 32.328125 33.6875 34.8125 36.53125 
Q 39.546875 41.84375 41.421875 45.53125 
Q 43.3125 49.21875 43.3125 52.78125 
Q 43.3125 58.59375 39.234375 62.25 
Q 35.15625 65.921875 28.609375 65.921875 
Q 23.96875 65.921875 18.8125 64.3125 
Q 13.671875 62.703125 7.8125 59.421875 
L 7.8125 69.390625 
Q 13.765625 71.78125 18.9375 73 
Q 24.125 74.21875 28.421875 74.21875 
Q 39.75 74.21875 46.484375 68.546875 
Q 53.21875 62.890625 53.21875 53.421875 
Q 53.21875 48.921875 51.53125 44.890625 
Q 49.859375 40.875 45.40625 35.40625 
Q 44.1875 33.984375 37.640625 27.21875 
Q 31.109375 20.453125 19.1875 8.296875 
z
" id="DejaVuSans-32"/>
      </defs>
      <g transform="translate(180.874235 266.598437)scale(0.1 -0.1)">
       <use xlink:href="#DejaVuSans-32"/>
       <use x="63.623047" xlink:href="#DejaVuSans-30"/>
      </g>
     </g>
    </g>
    <g id="xtick_4">
     <g id="line2d_4">
      <g>
       <use style="stroke:#000000;stroke-width:0.8;" x="249.351763" xlink:href="#m615f453463" y="252"/>
      </g>
     </g>
     <g id="text_4">
      <!-- 30 -->
      <defs>
       <path d="M 40.578125 39.3125 
Q 47.65625 37.796875 51.625 33 
Q 55.609375 28.21875 55.609375 21.1875 
Q 55.609375 10.40625 48.1875 4.484375 
Q 40.765625 -1.421875 27.09375 -1.421875 
Q 22.515625 -1.421875 17.65625 -0.515625 
Q 12.796875 0.390625 7.625 2.203125 
L 7.625 11.71875 
Q 11.71875 9.328125 16.59375 8.109375 
Q 21.484375 6.890625 26.8125 6.890625 
Q 36.078125 6.890625 40.9375 10.546875 
Q 45.796875 14.203125 45.796875 21.1875 
Q 45.796875 27.640625 41.28125 31.265625 
Q 36.765625 34.90625 28.71875 34.90625 
L 20.21875 34.90625 
L 20.21875 43.015625 
L 29.109375 43.015625 
Q 36.375 43.015625 40.234375 45.921875 
Q 44.09375 48.828125 44.09375 54.296875 
Q 44.09375 59.90625 40.109375 62.90625 
Q 36.140625 65.921875 28.71875 65.921875 
Q 24.65625 65.921875 20.015625 65.03125 
Q 15.375 64.15625 9.8125 62.3125 
L 9.8125 71.09375 
Q 15.4375 72.65625 20.34375 73.4375 
Q 25.25 74.21875 29.59375 74.21875 
Q 40.828125 74.21875 47.359375 69.109375 
Q 53.90625 64.015625 53.90625 55.328125 
Q 53.90625 49.265625 50.4375 45.09375 
Q 46.96875 40.921875 40.578125 39.3125 
z
" id="DejaVuSans-33"/>
      </defs>
      <g transform="translate(242.989263 266.598437)scale(0.1 -0.1)">
       <use xlink:href="#DejaVuSans-33"/>
       <use x="63.623047" xlink:href="#DejaVuSans-30"/>
      </g>
     </g>
    </g>
    <g id="xtick_5">
     <g id="line2d_5">
      <g>
       <use style="stroke:#000000;stroke-width:0.8;" x="311.46679" xlink:href="#m615f453463" y="252"/>
      </g>
     </g>
     <g id="text_5">
      <!-- 40 -->
      <defs>
       <path d="M 37.796875 64.3125 
L 12.890625 25.390625 
L 37.796875 25.390625 
z
M 35.203125 72.90625 
L 47.609375 72.90625 
L 47.609375 25.390625 
L 58.015625 25.390625 
L 58.015625 17.1875 
L 47.609375 17.1875 
L 47.609375 0 
L 37.796875 0 
L 37.796875 17.1875 
L 4.890625 17.1875 
L 4.890625 26.703125 
z
" id="DejaVuSans-34"/>
      </defs>
      <g transform="translate(305.10429 266.598437)scale(0.1 -0.1)">
       <use xlink:href="#DejaVuSans-34"/>
       <use x="63.623047" xlink:href="#DejaVuSans-30"/>
      </g>
     </g>
    </g>
    <g id="xtick_6">
     <g id="line2d_6">
      <g>
       <use style="stroke:#000000;stroke-width:0.8;" x="373.581818" xlink:href="#m615f453463" y="252"/>
      </g>
     </g>
     <g id="text_6">
      <!-- 50 -->
      <defs>
       <path d="M 10.796875 72.90625 
L 49.515625 72.90625 
L 49.515625 64.59375 
L 19.828125 64.59375 
L 19.828125 46.734375 
Q 21.96875 47.46875 24.109375 47.828125 
Q 26.265625 48.1875 28.421875 48.1875 
Q 40.625 48.1875 47.75 41.5 
Q 54.890625 34.8125 54.890625 23.390625 
Q 54.890625 11.625 47.5625 5.09375 
Q 40.234375 -1.421875 26.90625 -1.421875 
Q 22.3125 -1.421875 17.546875 -0.640625 
Q 12.796875 0.140625 7.71875 1.703125 
L 7.71875 11.625 
Q 12.109375 9.234375 16.796875 8.0625 
Q 21.484375 6.890625 26.703125 6.890625 
Q 35.15625 6.890625 40.078125 11.328125 
Q 45.015625 15.765625 45.015625 23.390625 
Q 45.015625 31 40.078125 35.4375 
Q 35.15625 39.890625 26.703125 39.890625 
Q 22.75 39.890625 18.8125 39.015625 
Q 14.890625 38.140625 10.796875 36.28125 
z
" id="DejaVuSans-35"/>
      </defs>
      <g transform="translate(367.219318 266.598437)scale(0.1 -0.1)">
       <use xlink:href="#DejaVuSans-35"/>
       <use x="63.623047" xlink:href="#DejaVuSans-30"/>
      </g>
     </g>
    </g>
    <g id="text_7">
     <!-- epoch -->
     <defs>
      <path d="M 56.203125 29.59375 
L 56.203125 25.203125 
L 14.890625 25.203125 
Q 15.484375 15.921875 20.484375 11.0625 
Q 25.484375 6.203125 34.421875 6.203125 
Q 39.59375 6.203125 44.453125 7.46875 
Q 49.3125 8.734375 54.109375 11.28125 
L 54.109375 2.78125 
Q 49.265625 0.734375 44.1875 -0.34375 
Q 39.109375 -1.421875 33.890625 -1.421875 
Q 20.796875 -1.421875 13.15625 6.1875 
Q 5.515625 13.8125 5.515625 26.8125 
Q 5.515625 40.234375 12.765625 48.109375 
Q 20.015625 56 32.328125 56 
Q 43.359375 56 49.78125 48.890625 
Q 56.203125 41.796875 56.203125 29.59375 
z
M 47.21875 32.234375 
Q 47.125 39.59375 43.09375 43.984375 
Q 39.0625 48.390625 32.421875 48.390625 
Q 24.90625 48.390625 20.390625 44.140625 
Q 15.875 39.890625 15.1875 32.171875 
z
" id="DejaVuSans-65"/>
      <path d="M 18.109375 8.203125 
L 18.109375 -20.796875 
L 9.078125 -20.796875 
L 9.078125 54.6875 
L 18.109375 54.6875 
L 18.109375 46.390625 
Q 20.953125 51.265625 25.265625 53.625 
Q 29.59375 56 35.59375 56 
Q 45.5625 56 51.78125 48.09375 
Q 58.015625 40.1875 58.015625 27.296875 
Q 58.015625 14.40625 51.78125 6.484375 
Q 45.5625 -1.421875 35.59375 -1.421875 
Q 29.59375 -1.421875 25.265625 0.953125 
Q 20.953125 3.328125 18.109375 8.203125 
z
M 48.6875 27.296875 
Q 48.6875 37.203125 44.609375 42.84375 
Q 40.53125 48.484375 33.40625 48.484375 
Q 26.265625 48.484375 22.1875 42.84375 
Q 18.109375 37.203125 18.109375 27.296875 
Q 18.109375 17.390625 22.1875 11.75 
Q 26.265625 6.109375 33.40625 6.109375 
Q 40.53125 6.109375 44.609375 11.75 
Q 48.6875 17.390625 48.6875 27.296875 
z
" id="DejaVuSans-70"/>
      <path d="M 30.609375 48.390625 
Q 23.390625 48.390625 19.1875 42.75 
Q 14.984375 37.109375 14.984375 27.296875 
Q 14.984375 17.484375 19.15625 11.84375 
Q 23.34375 6.203125 30.609375 6.203125 
Q 37.796875 6.203125 41.984375 11.859375 
Q 46.1875 17.53125 46.1875 27.296875 
Q 46.1875 37.015625 41.984375 42.703125 
Q 37.796875 48.390625 30.609375 48.390625 
z
M 30.609375 56 
Q 42.328125 56 49.015625 48.375 
Q 55.71875 40.765625 55.71875 27.296875 
Q 55.71875 13.875 49.015625 6.21875 
Q 42.328125 -1.421875 30.609375 -1.421875 
Q 18.84375 -1.421875 12.171875 6.21875 
Q 5.515625 13.875 5.515625 27.296875 
Q 5.515625 40.765625 12.171875 48.375 
Q 18.84375 56 30.609375 56 
z
" id="DejaVuSans-6f"/>
      <path d="M 48.78125 52.59375 
L 48.78125 44.1875 
Q 44.96875 46.296875 41.140625 47.34375 
Q 37.3125 48.390625 33.40625 48.390625 
Q 24.65625 48.390625 19.8125 42.84375 
Q 14.984375 37.3125 14.984375 27.296875 
Q 14.984375 17.28125 19.8125 11.734375 
Q 24.65625 6.203125 33.40625 6.203125 
Q 37.3125 6.203125 41.140625 7.25 
Q 44.96875 8.296875 48.78125 10.40625 
L 48.78125 2.09375 
Q 45.015625 0.34375 40.984375 -0.53125 
Q 36.96875 -1.421875 32.421875 -1.421875 
Q 20.0625 -1.421875 12.78125 6.34375 
Q 5.515625 14.109375 5.515625 27.296875 
Q 5.515625 40.671875 12.859375 48.328125 
Q 20.21875 56 33.015625 56 
Q 37.15625 56 41.109375 55.140625 
Q 45.0625 54.296875 48.78125 52.59375 
z
" id="DejaVuSans-63"/>
      <path d="M 54.890625 33.015625 
L 54.890625 0 
L 45.90625 0 
L 45.90625 32.71875 
Q 45.90625 40.484375 42.875 44.328125 
Q 39.84375 48.1875 33.796875 48.1875 
Q 26.515625 48.1875 22.3125 43.546875 
Q 18.109375 38.921875 18.109375 30.90625 
L 18.109375 0 
L 9.078125 0 
L 9.078125 75.984375 
L 18.109375 75.984375 
L 18.109375 46.1875 
Q 21.34375 51.125 25.703125 53.5625 
Q 30.078125 56 35.796875 56 
Q 45.21875 56 50.046875 50.171875 
Q 54.890625 44.34375 54.890625 33.015625 
z
" id="DejaVuSans-68"/>
     </defs>
     <g transform="translate(206.171875 280.276563)scale(0.1 -0.1)">
      <use xlink:href="#DejaVuSans-65"/>
      <use x="61.523438" xlink:href="#DejaVuSans-70"/>
      <use x="125" xlink:href="#DejaVuSans-6f"/>
      <use x="186.181641" xlink:href="#DejaVuSans-63"/>
      <use x="241.162109" xlink:href="#DejaVuSans-68"/>
     </g>
    </g>
   </g>
   <g id="matplotlib.axis_2">
    <g id="ytick_1">
     <g id="line2d_7">
      <defs>
       <path d="M 0 0 
L -3.5 0 
" id="m7c5fbfbdc1" style="stroke:#000000;stroke-width:0.8;"/>
      </defs>
      <g>
       <use style="stroke:#000000;stroke-width:0.8;" x="54" xlink:href="#m7c5fbfbdc1" y="227.707704"/>
      </g>
     </g>
     <g id="text_8">
      <!-- 0.3 -->
      <defs>
       <path d="M 10.6875 12.40625 
L 21 12.40625 
L 21 0 
L 10.6875 0 
z
" id="DejaVuSans-2e"/>
      </defs>
      <g transform="translate(31.096875 231.506923)scale(0.1 -0.1)">
       <use xlink:href="#DejaVuSans-30"/>
       <use x="63.623047" xlink:href="#DejaVuSans-2e"/>
       <use x="95.410156" xlink:href="#DejaVuSans-33"/>
      </g>
     </g>
    </g>
    <g id="ytick_2">
     <g id="line2d_8">
      <g>
       <use style="stroke:#000000;stroke-width:0.8;" x="54" xlink:href="#m7c5fbfbdc1" y="190.72771"/>
      </g>
     </g>
     <g id="text_9">
      <!-- 0.4 -->
      <g transform="translate(31.096875 194.526929)scale(0.1 -0.1)">
       <use xlink:href="#DejaVuSans-30"/>
       <use x="63.623047" xlink:href="#DejaVuSans-2e"/>
       <use x="95.410156" xlink:href="#DejaVuSans-34"/>
      </g>
     </g>
    </g>
    <g id="ytick_3">
     <g id="line2d_9">
      <g>
       <use style="stroke:#000000;stroke-width:0.8;" x="54" xlink:href="#m7c5fbfbdc1" y="153.747716"/>
      </g>
     </g>
     <g id="text_10">
      <!-- 0.5 -->
      <g transform="translate(31.096875 157.546935)scale(0.1 -0.1)">
       <use xlink:href="#DejaVuSans-30"/>
       <use x="63.623047" xlink:href="#DejaVuSans-2e"/>
       <use x="95.410156" xlink:href="#DejaVuSans-35"/>
      </g>
     </g>
    </g>
    <g id="ytick_4">
     <g id="line2d_10">
      <g>
       <use style="stroke:#000000;stroke-width:0.8;" x="54" xlink:href="#m7c5fbfbdc1" y="116.767722"/>
      </g>
     </g>
     <g id="text_11">
      <!-- 0.6 -->
      <defs>
       <path d="M 33.015625 40.375 
Q 26.375 40.375 22.484375 35.828125 
Q 18.609375 31.296875 18.609375 23.390625 
Q 18.609375 15.53125 22.484375 10.953125 
Q 26.375 6.390625 33.015625 6.390625 
Q 39.65625 6.390625 43.53125 10.953125 
Q 47.40625 15.53125 47.40625 23.390625 
Q 47.40625 31.296875 43.53125 35.828125 
Q 39.65625 40.375 33.015625 40.375 
z
M 52.59375 71.296875 
L 52.59375 62.3125 
Q 48.875 64.0625 45.09375 64.984375 
Q 41.3125 65.921875 37.59375 65.921875 
Q 27.828125 65.921875 22.671875 59.328125 
Q 17.53125 52.734375 16.796875 39.40625 
Q 19.671875 43.65625 24.015625 45.921875 
Q 28.375 48.1875 33.59375 48.1875 
Q 44.578125 48.1875 50.953125 41.515625 
Q 57.328125 34.859375 57.328125 23.390625 
Q 57.328125 12.15625 50.6875 5.359375 
Q 44.046875 -1.421875 33.015625 -1.421875 
Q 20.359375 -1.421875 13.671875 8.265625 
Q 6.984375 17.96875 6.984375 36.375 
Q 6.984375 53.65625 15.1875 63.9375 
Q 23.390625 74.21875 37.203125 74.21875 
Q 40.921875 74.21875 44.703125 73.484375 
Q 48.484375 72.75 52.59375 71.296875 
z
" id="DejaVuSans-36"/>
      </defs>
      <g transform="translate(31.096875 120.566941)scale(0.1 -0.1)">
       <use xlink:href="#DejaVuSans-30"/>
       <use x="63.623047" xlink:href="#DejaVuSans-2e"/>
       <use x="95.410156" xlink:href="#DejaVuSans-36"/>
      </g>
     </g>
    </g>
    <g id="ytick_5">
     <g id="line2d_11">
      <g>
       <use style="stroke:#000000;stroke-width:0.8;" x="54" xlink:href="#m7c5fbfbdc1" y="79.787728"/>
      </g>
     </g>
     <g id="text_12">
      <!-- 0.7 -->
      <defs>
       <path d="M 8.203125 72.90625 
L 55.078125 72.90625 
L 55.078125 68.703125 
L 28.609375 0 
L 18.3125 0 
L 43.21875 64.59375 
L 8.203125 64.59375 
z
" id="DejaVuSans-37"/>
      </defs>
      <g transform="translate(31.096875 83.586947)scale(0.1 -0.1)">
       <use xlink:href="#DejaVuSans-30"/>
       <use x="63.623047" xlink:href="#DejaVuSans-2e"/>
       <use x="95.410156" xlink:href="#DejaVuSans-37"/>
      </g>
     </g>
    </g>
    <g id="ytick_6">
     <g id="line2d_12">
      <g>
       <use style="stroke:#000000;stroke-width:0.8;" x="54" xlink:href="#m7c5fbfbdc1" y="42.807735"/>
      </g>
     </g>
     <g id="text_13">
      <!-- 0.8 -->
      <defs>
       <path d="M 31.78125 34.625 
Q 24.75 34.625 20.71875 30.859375 
Q 16.703125 27.09375 16.703125 20.515625 
Q 16.703125 13.921875 20.71875 10.15625 
Q 24.75 6.390625 31.78125 6.390625 
Q 38.8125 6.390625 42.859375 10.171875 
Q 46.921875 13.96875 46.921875 20.515625 
Q 46.921875 27.09375 42.890625 30.859375 
Q 38.875 34.625 31.78125 34.625 
z
M 21.921875 38.8125 
Q 15.578125 40.375 12.03125 44.71875 
Q 8.5 49.078125 8.5 55.328125 
Q 8.5 64.0625 14.71875 69.140625 
Q 20.953125 74.21875 31.78125 74.21875 
Q 42.671875 74.21875 48.875 69.140625 
Q 55.078125 64.0625 55.078125 55.328125 
Q 55.078125 49.078125 51.53125 44.71875 
Q 48 40.375 41.703125 38.8125 
Q 48.828125 37.15625 52.796875 32.3125 
Q 56.78125 27.484375 56.78125 20.515625 
Q 56.78125 9.90625 50.3125 4.234375 
Q 43.84375 -1.421875 31.78125 -1.421875 
Q 19.734375 -1.421875 13.25 4.234375 
Q 6.78125 9.90625 6.78125 20.515625 
Q 6.78125 27.484375 10.78125 32.3125 
Q 14.796875 37.15625 21.921875 38.8125 
z
M 18.3125 54.390625 
Q 18.3125 48.734375 21.84375 45.5625 
Q 25.390625 42.390625 31.78125 42.390625 
Q 38.140625 42.390625 41.71875 45.5625 
Q 45.3125 48.734375 45.3125 54.390625 
Q 45.3125 60.0625 41.71875 63.234375 
Q 38.140625 66.40625 31.78125 66.40625 
Q 25.390625 66.40625 21.84375 63.234375 
Q 18.3125 60.0625 18.3125 54.390625 
z
" id="DejaVuSans-38"/>
      </defs>
      <g transform="translate(31.096875 46.606953)scale(0.1 -0.1)">
       <use xlink:href="#DejaVuSans-30"/>
       <use x="63.623047" xlink:href="#DejaVuSans-2e"/>
       <use x="95.410156" xlink:href="#DejaVuSans-38"/>
      </g>
     </g>
    </g>
    <g id="text_14">
     <!-- accuracy -->
     <defs>
      <path d="M 34.28125 27.484375 
Q 23.390625 27.484375 19.1875 25 
Q 14.984375 22.515625 14.984375 16.5 
Q 14.984375 11.71875 18.140625 8.90625 
Q 21.296875 6.109375 26.703125 6.109375 
Q 34.1875 6.109375 38.703125 11.40625 
Q 43.21875 16.703125 43.21875 25.484375 
L 43.21875 27.484375 
z
M 52.203125 31.203125 
L 52.203125 0 
L 43.21875 0 
L 43.21875 8.296875 
Q 40.140625 3.328125 35.546875 0.953125 
Q 30.953125 -1.421875 24.3125 -1.421875 
Q 15.921875 -1.421875 10.953125 3.296875 
Q 6 8.015625 6 15.921875 
Q 6 25.140625 12.171875 29.828125 
Q 18.359375 34.515625 30.609375 34.515625 
L 43.21875 34.515625 
L 43.21875 35.40625 
Q 43.21875 41.609375 39.140625 45 
Q 35.0625 48.390625 27.6875 48.390625 
Q 23 48.390625 18.546875 47.265625 
Q 14.109375 46.140625 10.015625 43.890625 
L 10.015625 52.203125 
Q 14.9375 54.109375 19.578125 55.046875 
Q 24.21875 56 28.609375 56 
Q 40.484375 56 46.34375 49.84375 
Q 52.203125 43.703125 52.203125 31.203125 
z
" id="DejaVuSans-61"/>
      <path d="M 8.5 21.578125 
L 8.5 54.6875 
L 17.484375 54.6875 
L 17.484375 21.921875 
Q 17.484375 14.15625 20.5 10.265625 
Q 23.53125 6.390625 29.59375 6.390625 
Q 36.859375 6.390625 41.078125 11.03125 
Q 45.3125 15.671875 45.3125 23.6875 
L 45.3125 54.6875 
L 54.296875 54.6875 
L 54.296875 0 
L 45.3125 0 
L 45.3125 8.40625 
Q 42.046875 3.421875 37.71875 1 
Q 33.40625 -1.421875 27.6875 -1.421875 
Q 18.265625 -1.421875 13.375 4.4375 
Q 8.5 10.296875 8.5 21.578125 
z
M 31.109375 56 
z
" id="DejaVuSans-75"/>
      <path d="M 41.109375 46.296875 
Q 39.59375 47.171875 37.8125 47.578125 
Q 36.03125 48 33.890625 48 
Q 26.265625 48 22.1875 43.046875 
Q 18.109375 38.09375 18.109375 28.8125 
L 18.109375 0 
L 9.078125 0 
L 9.078125 54.6875 
L 18.109375 54.6875 
L 18.109375 46.1875 
Q 20.953125 51.171875 25.484375 53.578125 
Q 30.03125 56 36.53125 56 
Q 37.453125 56 38.578125 55.875 
Q 39.703125 55.765625 41.0625 55.515625 
z
" id="DejaVuSans-72"/>
      <path d="M 32.171875 -5.078125 
Q 28.375 -14.84375 24.75 -17.8125 
Q 21.140625 -20.796875 15.09375 -20.796875 
L 7.90625 -20.796875 
L 7.90625 -13.28125 
L 13.1875 -13.28125 
Q 16.890625 -13.28125 18.9375 -11.515625 
Q 21 -9.765625 23.484375 -3.21875 
L 25.09375 0.875 
L 2.984375 54.6875 
L 12.5 54.6875 
L 29.59375 11.921875 
L 46.6875 54.6875 
L 56.203125 54.6875 
z
" id="DejaVuSans-79"/>
     </defs>
     <g transform="translate(25.017187 165.839375)rotate(-90)scale(0.1 -0.1)">
      <use xlink:href="#DejaVuSans-61"/>
      <use x="61.279297" xlink:href="#DejaVuSans-63"/>
      <use x="116.259766" xlink:href="#DejaVuSans-63"/>
      <use x="171.240234" xlink:href="#DejaVuSans-75"/>
      <use x="234.619141" xlink:href="#DejaVuSans-72"/>
      <use x="275.732422" xlink:href="#DejaVuSans-61"/>
      <use x="337.011719" xlink:href="#DejaVuSans-63"/>
      <use x="391.992188" xlink:href="#DejaVuSans-79"/>
     </g>
    </g>
   </g>
   <g id="line2d_13">
    <path clip-path="url(#pe9ee0307e9)" d="M 81.641187 165.688938 
L 87.85269 141.086623 
L 94.064193 128.665281 
L 100.275696 119.313287 
L 106.487199 112.233671 
L 112.698701 107.939873 
L 118.910204 103.220484 
L 125.121707 101.655857 
L 131.33321 96.093215 
L 137.544712 91.533296 
L 143.756215 85.498424 
L 149.967718 83.790786 
L 156.179221 82.354417 
L 162.390724 81.603148 
L 168.602226 74.840662 
L 174.813729 71.630138 
L 181.025232 69.826537 
L 187.236735 71.581734 
L 193.448237 72.402626 
L 199.65974 71.747858 
L 205.871243 69.192768 
L 212.082746 65.569265 
L 218.294249 61.79234 
L 224.505751 62.942958 
L 230.717254 63.025022 
L 236.928757 62.602088 
L 243.14026 60.966998 
L 249.351763 62.982006 
L 255.563265 65.42275 
L 261.774768 65.120588 
L 267.986271 64.335755 
L 274.197774 60.085695 
L 280.409276 59.682541 
L 286.620779 56.129901 
L 292.832282 58.932372 
L 299.043785 58.066019 
L 305.255288 60.889104 
L 311.46679 59.93202 
L 317.678293 56.739846 
L 323.889796 53.202272 
L 330.101299 51.207011 
L 336.312801 52.471729 
L 342.524304 50.840791 
L 348.735807 48.889444 
L 354.94731 48.928925 
L 361.158813 51.207418 
L 367.370315 50.360218 
L 373.581818 50.009611 
" style="fill:none;stroke:#0000ff;stroke-linecap:square;stroke-width:1.5;"/>
   </g>
   <g id="line2d_14">
    <path clip-path="url(#pe9ee0307e9)" d="M 81.641187 165.889765 
L 87.85269 143.576355 
L 94.064193 131.434208 
L 100.275696 121.910989 
L 106.487199 113.048918 
L 112.698701 108.217152 
L 118.910204 103.00208 
L 125.121707 102.509315 
L 131.33321 96.929972 
L 137.544712 93.045793 
L 143.756215 86.185888 
L 149.967718 84.61141 
L 156.179221 81.056856 
L 162.390724 80.356289 
L 168.602226 72.623219 
L 174.813729 71.886279 
L 181.025232 69.415765 
L 187.236735 71.594282 
L 193.448237 72.177905 
L 199.65974 73.315752 
L 205.871243 71.427449 
L 212.082746 68.796171 
L 218.294249 63.521207 
L 224.505751 64.61575 
L 230.717254 62.794198 
L 236.928757 62.848571 
L 243.14026 61.344691 
L 249.351763 62.769366 
L 255.563265 64.754509 
L 261.774768 65.615592 
L 267.986271 66.361137 
L 274.197774 63.897343 
L 280.409276 63.005121 
L 286.620779 59.535368 
L 292.832282 62.664157 
L 299.043785 61.786215 
L 305.255288 65.054616 
L 311.46679 62.929448 
L 317.678293 60.361459 
L 323.889796 57.636778 
L 330.101299 56.737872 
L 336.312801 58.482819 
L 342.524304 55.230819 
L 348.735807 53.251983 
L 354.94731 53.559017 
L 361.158813 57.696634 
L 367.370315 56.707462 
L 373.581818 57.221126 
" style="fill:none;stroke:#ff0000;stroke-linecap:square;stroke-width:1.5;"/>
   </g>
   <g id="line2d_15">
    <path clip-path="url(#pe9ee0307e9)" d="M 81.641187 197.526587 
L 87.85269 185.121531 
L 94.064193 169.962451 
L 100.275696 172.782943 
L 106.487199 162.310721 
L 112.698701 164.644725 
L 118.910204 155.826384 
L 125.121707 157.634911 
L 131.33321 167.760761 
L 137.544712 164.754181 
L 143.756215 165.464008 
L 149.967718 148.163032 
L 156.179221 152.691796 
L 162.390724 157.223897 
L 168.602226 174.735496 
L 174.813729 182.169502 
L 181.025232 186.714804 
L 187.236735 175.724994 
L 193.448237 173.244631 
L 199.65974 172.639369 
L 205.871243 176.521542 
L 212.082746 187.768732 
L 218.294249 181.157874 
L 224.505751 177.996063 
L 230.717254 172.786699 
L 236.928757 167.858738 
L 243.14026 175.887976 
L 249.351763 163.24843 
L 255.563265 164.901667 
L 261.774768 165.499957 
L 267.986271 172.834142 
L 274.197774 186.163445 
L 280.409276 194.136181 
L 286.620779 197.197296 
L 292.832282 195.417367 
L 299.043785 181.941307 
L 305.255288 191.500467 
L 311.46679 192.224501 
L 317.678293 201.42363 
L 323.889796 210.217327 
L 330.101299 215.376297 
L 336.312801 221.677929 
L 342.524304 210.53827 
L 348.735807 212.220617 
L 354.94731 211.348069 
L 361.158813 216.40517 
L 367.370315 219.440848 
L 373.581818 225.844176 
" style="fill:none;stroke:#008000;stroke-linecap:square;stroke-width:1.5;"/>
   </g>
   <g id="line2d_16">
    <defs>
     <path d="M 0 1 
C 0.265203 1 0.51958 0.894634 0.707107 0.707107 
C 0.894634 0.51958 1 0.265203 1 0 
C 1 -0.265203 0.894634 -0.51958 0.707107 -0.707107 
C 0.51958 -0.894634 0.265203 -1 0 -1 
C -0.265203 -1 -0.51958 -0.894634 -0.707107 -0.707107 
C -0.894634 -0.51958 -1 -0.265203 -1 0 
C -1 0.265203 -0.894634 0.51958 -0.707107 0.707107 
C -0.51958 0.894634 -0.265203 1 0 1 
z
" id="m5d1fc1929d" style="stroke:#0000ff;"/>
    </defs>
    <g clip-path="url(#pe9ee0307e9)">
     <use style="fill:#0000ff;stroke:#0000ff;" x="69.218182" xlink:href="#m5d1fc1929d" y="198.789626"/>
     <use style="fill:#0000ff;stroke:#0000ff;" x="75.429685" xlink:href="#m5d1fc1929d" y="159.237395"/>
     <use style="fill:#0000ff;stroke:#0000ff;" x="81.641187" xlink:href="#m5d1fc1929d" y="139.039794"/>
     <use style="fill:#0000ff;stroke:#0000ff;" x="87.85269" xlink:href="#m5d1fc1929d" y="124.982678"/>
     <use style="fill:#0000ff;stroke:#0000ff;" x="94.064193" xlink:href="#m5d1fc1929d" y="121.973369"/>
     <use style="fill:#0000ff;stroke:#0000ff;" x="100.275696" xlink:href="#m5d1fc1929d" y="110.983812"/>
     <use style="fill:#0000ff;stroke:#0000ff;" x="106.487199" xlink:href="#m5d1fc1929d" y="103.743831"/>
     <use style="fill:#0000ff;stroke:#0000ff;" x="112.698701" xlink:href="#m5d1fc1929d" y="109.091975"/>
     <use style="fill:#0000ff;stroke:#0000ff;" x="118.910204" xlink:href="#m5d1fc1929d" y="96.825645"/>
     <use style="fill:#0000ff;stroke:#0000ff;" x="125.121707" xlink:href="#m5d1fc1929d" y="99.049951"/>
     <use style="fill:#0000ff;stroke:#0000ff;" x="131.33321" xlink:href="#m5d1fc1929d" y="92.40405"/>
     <use style="fill:#0000ff;stroke:#0000ff;" x="137.544712" xlink:href="#m5d1fc1929d" y="83.145888"/>
     <use style="fill:#0000ff;stroke:#0000ff;" x="143.756215" xlink:href="#m5d1fc1929d" y="80.945334"/>
     <use style="fill:#0000ff;stroke:#0000ff;" x="149.967718" xlink:href="#m5d1fc1929d" y="87.281137"/>
     <use style="fill:#0000ff;stroke:#0000ff;" x="156.179221" xlink:href="#m5d1fc1929d" y="78.83678"/>
     <use style="fill:#0000ff;stroke:#0000ff;" x="162.390724" xlink:href="#m5d1fc1929d" y="78.691527"/>
     <use style="fill:#0000ff;stroke:#0000ff;" x="168.602226" xlink:href="#m5d1fc1929d" y="66.993679"/>
     <use style="fill:#0000ff;stroke:#0000ff;" x="174.813729" xlink:href="#m5d1fc1929d" y="69.205209"/>
     <use style="fill:#0000ff;stroke:#0000ff;" x="181.025232" xlink:href="#m5d1fc1929d" y="73.280722"/>
     <use style="fill:#0000ff;stroke:#0000ff;" x="187.236735" xlink:href="#m5d1fc1929d" y="72.259272"/>
     <use style="fill:#0000ff;stroke:#0000ff;" x="193.448237" xlink:href="#m5d1fc1929d" y="71.667885"/>
     <use style="fill:#0000ff;stroke:#0000ff;" x="199.65974" xlink:href="#m5d1fc1929d" y="71.316419"/>
     <use style="fill:#0000ff;stroke:#0000ff;" x="205.871243" xlink:href="#m5d1fc1929d" y="64.594001"/>
     <use style="fill:#0000ff;stroke:#0000ff;" x="212.082746" xlink:href="#m5d1fc1929d" y="60.797375"/>
     <use style="fill:#0000ff;stroke:#0000ff;" x="218.294249" xlink:href="#m5d1fc1929d" y="59.985643"/>
     <use style="fill:#0000ff;stroke:#0000ff;" x="224.505751" xlink:href="#m5d1fc1929d" y="68.045856"/>
     <use style="fill:#0000ff;stroke:#0000ff;" x="230.717254" xlink:href="#m5d1fc1929d" y="61.043566"/>
     <use style="fill:#0000ff;stroke:#0000ff;" x="236.928757" xlink:href="#m5d1fc1929d" y="58.716841"/>
     <use style="fill:#0000ff;stroke:#0000ff;" x="243.14026" xlink:href="#m5d1fc1929d" y="63.140586"/>
     <use style="fill:#0000ff;stroke:#0000ff;" x="249.351763" xlink:href="#m5d1fc1929d" y="67.088592"/>
     <use style="fill:#0000ff;stroke:#0000ff;" x="255.563265" xlink:href="#m5d1fc1929d" y="66.039072"/>
     <use style="fill:#0000ff;stroke:#0000ff;" x="261.774768" xlink:href="#m5d1fc1929d" y="62.234099"/>
     <use style="fill:#0000ff;stroke:#0000ff;" x="267.986271" xlink:href="#m5d1fc1929d" y="64.734094"/>
     <use style="fill:#0000ff;stroke:#0000ff;" x="274.197774" xlink:href="#m5d1fc1929d" y="53.288892"/>
     <use style="fill:#0000ff;stroke:#0000ff;" x="280.409276" xlink:href="#m5d1fc1929d" y="61.024637"/>
     <use style="fill:#0000ff;stroke:#0000ff;" x="286.620779" xlink:href="#m5d1fc1929d" y="54.076173"/>
     <use style="fill:#0000ff;stroke:#0000ff;" x="292.832282" xlink:href="#m5d1fc1929d" y="61.696308"/>
     <use style="fill:#0000ff;stroke:#0000ff;" x="299.043785" xlink:href="#m5d1fc1929d" y="58.425578"/>
     <use style="fill:#0000ff;stroke:#0000ff;" x="305.255288" xlink:href="#m5d1fc1929d" y="62.545427"/>
     <use style="fill:#0000ff;stroke:#0000ff;" x="311.46679" xlink:href="#m5d1fc1929d" y="58.825057"/>
     <use style="fill:#0000ff;stroke:#0000ff;" x="317.678293" xlink:href="#m5d1fc1929d" y="48.849056"/>
     <use style="fill:#0000ff;stroke:#0000ff;" x="323.889796" xlink:href="#m5d1fc1929d" y="51.932703"/>
     <use style="fill:#0000ff;stroke:#0000ff;" x="330.101299" xlink:href="#m5d1fc1929d" y="52.839276"/>
     <use style="fill:#0000ff;stroke:#0000ff;" x="336.312801" xlink:href="#m5d1fc1929d" y="52.643208"/>
     <use style="fill:#0000ff;stroke:#0000ff;" x="342.524304" xlink:href="#m5d1fc1929d" y="47.039888"/>
     <use style="fill:#0000ff;stroke:#0000ff;" x="348.735807" xlink:href="#m5d1fc1929d" y="46.985236"/>
     <use style="fill:#0000ff;stroke:#0000ff;" x="354.94731" xlink:href="#m5d1fc1929d" y="52.761652"/>
     <use style="fill:#0000ff;stroke:#0000ff;" x="361.158813" xlink:href="#m5d1fc1929d" y="53.875367"/>
     <use style="fill:#0000ff;stroke:#0000ff;" x="367.370315" xlink:href="#m5d1fc1929d" y="44.443636"/>
     <use style="fill:#0000ff;stroke:#0000ff;" x="373.581818" xlink:href="#m5d1fc1929d" y="51.709829"/>
    </g>
   </g>
   <g id="line2d_17">
    <defs>
     <path d="M 0 1 
C 0.265203 1 0.51958 0.894634 0.707107 0.707107 
C 0.894634 0.51958 1 0.265203 1 0 
C 1 -0.265203 0.894634 -0.51958 0.707107 -0.707107 
C 0.51958 -0.894634 0.265203 -1 0 -1 
C -0.265203 -1 -0.51958 -0.894634 -0.707107 -0.707107 
C -0.894634 -0.51958 -1 -0.265203 -1 0 
C -1 0.265203 -0.894634 0.51958 -0.707107 0.707107 
C -0.51958 0.894634 -0.265203 1 0 1 
z
" id="ma69c3d36bd" style="stroke:#ff0000;"/>
    </defs>
    <g clip-path="url(#pe9ee0307e9)">
     <use style="fill:#ff0000;stroke:#ff0000;" x="69.218182" xlink:href="#ma69c3d36bd" y="197.006558"/>
     <use style="fill:#ff0000;stroke:#ff0000;" x="75.429685" xlink:href="#ma69c3d36bd" y="159.382116"/>
     <use style="fill:#ff0000;stroke:#ff0000;" x="81.641187" xlink:href="#ma69c3d36bd" y="141.28062"/>
     <use style="fill:#ff0000;stroke:#ff0000;" x="87.85269" xlink:href="#ma69c3d36bd" y="130.066329"/>
     <use style="fill:#ff0000;stroke:#ff0000;" x="94.064193" xlink:href="#ma69c3d36bd" y="122.955674"/>
     <use style="fill:#ff0000;stroke:#ff0000;" x="100.275696" xlink:href="#ma69c3d36bd" y="112.710963"/>
     <use style="fill:#ff0000;stroke:#ff0000;" x="106.487199" xlink:href="#ma69c3d36bd" y="103.480118"/>
     <use style="fill:#ff0000;stroke:#ff0000;" x="112.698701" xlink:href="#ma69c3d36bd" y="108.460375"/>
     <use style="fill:#ff0000;stroke:#ff0000;" x="118.910204" xlink:href="#ma69c3d36bd" y="97.065747"/>
     <use style="fill:#ff0000;stroke:#ff0000;" x="125.121707" xlink:href="#ma69c3d36bd" y="102.001824"/>
     <use style="fill:#ff0000;stroke:#ff0000;" x="131.33321" xlink:href="#ma69c3d36bd" y="91.722346"/>
     <use style="fill:#ff0000;stroke:#ff0000;" x="137.544712" xlink:href="#ma69c3d36bd" y="85.413209"/>
     <use style="fill:#ff0000;stroke:#ff0000;" x="143.756215" xlink:href="#ma69c3d36bd" y="81.422108"/>
     <use style="fill:#ff0000;stroke:#ff0000;" x="149.967718" xlink:href="#ma69c3d36bd" y="86.998913"/>
     <use style="fill:#ff0000;stroke:#ff0000;" x="156.179221" xlink:href="#ma69c3d36bd" y="74.749546"/>
     <use style="fill:#ff0000;stroke:#ff0000;" x="162.390724" xlink:href="#ma69c3d36bd" y="79.320408"/>
     <use style="fill:#ff0000;stroke:#ff0000;" x="168.602226" xlink:href="#ma69c3d36bd" y="63.799704"/>
     <use style="fill:#ff0000;stroke:#ff0000;" x="174.813729" xlink:href="#ma69c3d36bd" y="72.538727"/>
     <use style="fill:#ff0000;stroke:#ff0000;" x="181.025232" xlink:href="#ma69c3d36bd" y="71.908864"/>
     <use style="fill:#ff0000;stroke:#ff0000;" x="187.236735" xlink:href="#ma69c3d36bd" y="70.335255"/>
     <use style="fill:#ff0000;stroke:#ff0000;" x="193.448237" xlink:href="#ma69c3d36bd" y="74.289596"/>
     <use style="fill:#ff0000;stroke:#ff0000;" x="199.65974" xlink:href="#ma69c3d36bd" y="75.322405"/>
     <use style="fill:#ff0000;stroke:#ff0000;" x="205.871243" xlink:href="#ma69c3d36bd" y="64.670347"/>
     <use style="fill:#ff0000;stroke:#ff0000;" x="212.082746" xlink:href="#ma69c3d36bd" y="66.395762"/>
     <use style="fill:#ff0000;stroke:#ff0000;" x="218.294249" xlink:href="#ma69c3d36bd" y="59.497513"/>
     <use style="fill:#ff0000;stroke:#ff0000;" x="224.505751" xlink:href="#ma69c3d36bd" y="67.953975"/>
     <use style="fill:#ff0000;stroke:#ff0000;" x="230.717254" xlink:href="#ma69c3d36bd" y="60.931107"/>
     <use style="fill:#ff0000;stroke:#ff0000;" x="236.928757" xlink:href="#ma69c3d36bd" y="59.66063"/>
     <use style="fill:#ff0000;stroke:#ff0000;" x="243.14026" xlink:href="#ma69c3d36bd" y="63.442336"/>
     <use style="fill:#ff0000;stroke:#ff0000;" x="249.351763" xlink:href="#ma69c3d36bd" y="65.205133"/>
     <use style="fill:#ff0000;stroke:#ff0000;" x="255.563265" xlink:href="#ma69c3d36bd" y="65.616058"/>
     <use style="fill:#ff0000;stroke:#ff0000;" x="261.774768" xlink:href="#ma69c3d36bd" y="66.025585"/>
     <use style="fill:#ff0000;stroke:#ff0000;" x="267.986271" xlink:href="#ma69c3d36bd" y="67.441768"/>
     <use style="fill:#ff0000;stroke:#ff0000;" x="274.197774" xlink:href="#ma69c3d36bd" y="58.224676"/>
     <use style="fill:#ff0000;stroke:#ff0000;" x="280.409276" xlink:href="#ma69c3d36bd" y="63.34892"/>
     <use style="fill:#ff0000;stroke:#ff0000;" x="286.620779" xlink:href="#ma69c3d36bd" y="57.03251"/>
     <use style="fill:#ff0000;stroke:#ff0000;" x="292.832282" xlink:href="#ma69c3d36bd" y="67.611043"/>
     <use style="fill:#ff0000;stroke:#ff0000;" x="299.043785" xlink:href="#ma69c3d36bd" y="60.715094"/>
     <use style="fill:#ff0000;stroke:#ff0000;" x="305.255288" xlink:href="#ma69c3d36bd" y="66.83771"/>
     <use style="fill:#ff0000;stroke:#ff0000;" x="311.46679" xlink:href="#ma69c3d36bd" y="61.235541"/>
     <use style="fill:#ff0000;stroke:#ff0000;" x="317.678293" xlink:href="#ma69c3d36bd" y="53.011125"/>
     <use style="fill:#ff0000;stroke:#ff0000;" x="323.889796" xlink:href="#ma69c3d36bd" y="58.663667"/>
     <use style="fill:#ff0000;stroke:#ff0000;" x="330.101299" xlink:href="#ma69c3d36bd" y="58.538825"/>
     <use style="fill:#ff0000;stroke:#ff0000;" x="336.312801" xlink:href="#ma69c3d36bd" y="58.245965"/>
     <use style="fill:#ff0000;stroke:#ff0000;" x="342.524304" xlink:href="#ma69c3d36bd" y="48.907668"/>
     <use style="fill:#ff0000;stroke:#ff0000;" x="348.735807" xlink:href="#ma69c3d36bd" y="52.602316"/>
     <use style="fill:#ff0000;stroke:#ff0000;" x="354.94731" xlink:href="#ma69c3d36bd" y="59.167068"/>
     <use style="fill:#ff0000;stroke:#ff0000;" x="361.158813" xlink:href="#ma69c3d36bd" y="61.320519"/>
     <use style="fill:#ff0000;stroke:#ff0000;" x="367.370315" xlink:href="#ma69c3d36bd" y="49.634801"/>
     <use style="fill:#ff0000;stroke:#ff0000;" x="373.581818" xlink:href="#ma69c3d36bd" y="60.708059"/>
    </g>
   </g>
   <g id="line2d_18">
    <defs>
     <path d="M 0 1 
C 0.265203 1 0.51958 0.894634 0.707107 0.707107 
C 0.894634 0.51958 1 0.265203 1 0 
C 1 -0.265203 0.894634 -0.51958 0.707107 -0.707107 
C 0.51958 -0.894634 0.265203 -1 0 -1 
C -0.265203 -1 -0.51958 -0.894634 -0.707107 -0.707107 
C -0.894634 -0.51958 -1 -0.265203 -1 0 
C -1 0.265203 -0.894634 0.51958 -0.707107 0.707107 
C -0.51958 0.894634 -0.265203 1 0 1 
z
" id="m0b2ff7cb3a" style="stroke:#008000;"/>
    </defs>
    <g clip-path="url(#pe9ee0307e9)">
     <use style="fill:#008000;stroke:#008000;" x="69.218182" xlink:href="#m0b2ff7cb3a" y="220.097461"/>
     <use style="fill:#008000;stroke:#008000;" x="75.429685" xlink:href="#m0b2ff7cb3a" y="198.239184"/>
     <use style="fill:#008000;stroke:#008000;" x="81.641187" xlink:href="#m0b2ff7cb3a" y="174.243116"/>
     <use style="fill:#008000;stroke:#008000;" x="87.85269" xlink:href="#m0b2ff7cb3a" y="182.882292"/>
     <use style="fill:#008000;stroke:#008000;" x="94.064193" xlink:href="#m0b2ff7cb3a" y="152.761946"/>
     <use style="fill:#008000;stroke:#008000;" x="100.275696" xlink:href="#m0b2ff7cb3a" y="182.704592"/>
     <use style="fill:#008000;stroke:#008000;" x="106.487199" xlink:href="#m0b2ff7cb3a" y="151.465626"/>
     <use style="fill:#008000;stroke:#008000;" x="112.698701" xlink:href="#m0b2ff7cb3a" y="159.763958"/>
     <use style="fill:#008000;stroke:#008000;" x="118.910204" xlink:href="#m0b2ff7cb3a" y="156.249569"/>
     <use style="fill:#008000;stroke:#008000;" x="125.121707" xlink:href="#m0b2ff7cb3a" y="156.891207"/>
     <use style="fill:#008000;stroke:#008000;" x="131.33321" xlink:href="#m0b2ff7cb3a" y="190.141506"/>
     <use style="fill:#008000;stroke:#008000;" x="137.544712" xlink:href="#m0b2ff7cb3a" y="147.229831"/>
     <use style="fill:#008000;stroke:#008000;" x="143.756215" xlink:href="#m0b2ff7cb3a" y="159.020688"/>
     <use style="fill:#008000;stroke:#008000;" x="149.967718" xlink:href="#m0b2ff7cb3a" y="138.238575"/>
     <use style="fill:#008000;stroke:#008000;" x="156.179221" xlink:href="#m0b2ff7cb3a" y="160.816123"/>
     <use style="fill:#008000;stroke:#008000;" x="162.390724" xlink:href="#m0b2ff7cb3a" y="172.616992"/>
     <use style="fill:#008000;stroke:#008000;" x="168.602226" xlink:href="#m0b2ff7cb3a" y="190.773374"/>
     <use style="fill:#008000;stroke:#008000;" x="174.813729" xlink:href="#m0b2ff7cb3a" y="183.118141"/>
     <use style="fill:#008000;stroke:#008000;" x="181.025232" xlink:href="#m0b2ff7cb3a" y="186.252896"/>
     <use style="fill:#008000;stroke:#008000;" x="187.236735" xlink:href="#m0b2ff7cb3a" y="157.803946"/>
     <use style="fill:#008000;stroke:#008000;" x="193.448237" xlink:href="#m0b2ff7cb3a" y="175.677052"/>
     <use style="fill:#008000;stroke:#008000;" x="199.65974" xlink:href="#m0b2ff7cb3a" y="184.437109"/>
     <use style="fill:#008000;stroke:#008000;" x="205.871243" xlink:href="#m0b2ff7cb3a" y="169.450466"/>
     <use style="fill:#008000;stroke:#008000;" x="212.082746" xlink:href="#m0b2ff7cb3a" y="209.418621"/>
     <use style="fill:#008000;stroke:#008000;" x="218.294249" xlink:href="#m0b2ff7cb3a" y="164.604536"/>
     <use style="fill:#008000;stroke:#008000;" x="224.505751" xlink:href="#m0b2ff7cb3a" y="159.965031"/>
     <use style="fill:#008000;stroke:#008000;" x="230.717254" xlink:href="#m0b2ff7cb3a" y="193.79053"/>
     <use style="fill:#008000;stroke:#008000;" x="236.928757" xlink:href="#m0b2ff7cb3a" y="149.820651"/>
     <use style="fill:#008000;stroke:#008000;" x="243.14026" xlink:href="#m0b2ff7cb3a" y="184.052746"/>
     <use style="fill:#008000;stroke:#008000;" x="249.351763" xlink:href="#m0b2ff7cb3a" y="155.871892"/>
     <use style="fill:#008000;stroke:#008000;" x="255.563265" xlink:href="#m0b2ff7cb3a" y="154.780363"/>
     <use style="fill:#008000;stroke:#008000;" x="261.774768" xlink:href="#m0b2ff7cb3a" y="185.847615"/>
     <use style="fill:#008000;stroke:#008000;" x="267.986271" xlink:href="#m0b2ff7cb3a" y="177.874447"/>
     <use style="fill:#008000;stroke:#008000;" x="274.197774" xlink:href="#m0b2ff7cb3a" y="194.768274"/>
     <use style="fill:#008000;stroke:#008000;" x="280.409276" xlink:href="#m0b2ff7cb3a" y="209.765823"/>
     <use style="fill:#008000;stroke:#008000;" x="286.620779" xlink:href="#m0b2ff7cb3a" y="187.05779"/>
     <use style="fill:#008000;stroke:#008000;" x="292.832282" xlink:href="#m0b2ff7cb3a" y="189.428487"/>
     <use style="fill:#008000;stroke:#008000;" x="299.043785" xlink:href="#m0b2ff7cb3a" y="169.337642"/>
     <use style="fill:#008000;stroke:#008000;" x="305.255288" xlink:href="#m0b2ff7cb3a" y="215.735272"/>
     <use style="fill:#008000;stroke:#008000;" x="311.46679" xlink:href="#m0b2ff7cb3a" y="191.60059"/>
     <use style="fill:#008000;stroke:#008000;" x="317.678293" xlink:href="#m0b2ff7cb3a" y="196.935028"/>
     <use style="fill:#008000;stroke:#008000;" x="323.889796" xlink:href="#m0b2ff7cb3a" y="242.116364"/>
     <use style="fill:#008000;stroke:#008000;" x="330.101299" xlink:href="#m0b2ff7cb3a" y="207.077499"/>
     <use style="fill:#008000;stroke:#008000;" x="336.312801" xlink:href="#m0b2ff7cb3a" y="215.839924"/>
     <use style="fill:#008000;stroke:#008000;" x="342.524304" xlink:href="#m0b2ff7cb3a" y="208.697386"/>
     <use style="fill:#008000;stroke:#008000;" x="348.735807" xlink:href="#m0b2ff7cb3a" y="212.124542"/>
     <use style="fill:#008000;stroke:#008000;" x="354.94731" xlink:href="#m0b2ff7cb3a" y="213.22228"/>
     <use style="fill:#008000;stroke:#008000;" x="361.158813" xlink:href="#m0b2ff7cb3a" y="223.868689"/>
     <use style="fill:#008000;stroke:#008000;" x="367.370315" xlink:href="#m0b2ff7cb3a" y="221.231575"/>
     <use style="fill:#008000;stroke:#008000;" x="373.581818" xlink:href="#m0b2ff7cb3a" y="232.432263"/>
    </g>
   </g>
   <g id="patch_3">
    <path d="M 54 252 
L 54 34.56 
" style="fill:none;stroke:#000000;stroke-linecap:square;stroke-linejoin:miter;stroke-width:0.8;"/>
   </g>
   <g id="patch_4">
    <path d="M 388.8 252 
L 388.8 34.56 
" style="fill:none;stroke:#000000;stroke-linecap:square;stroke-linejoin:miter;stroke-width:0.8;"/>
   </g>
   <g id="patch_5">
    <path d="M 54 252 
L 388.8 252 
" style="fill:none;stroke:#000000;stroke-linecap:square;stroke-linejoin:miter;stroke-width:0.8;"/>
   </g>
   <g id="patch_6">
    <path d="M 54 34.56 
L 388.8 34.56 
" style="fill:none;stroke:#000000;stroke-linecap:square;stroke-linejoin:miter;stroke-width:0.8;"/>
   </g>
   <g id="text_15">
    <!-- model accuracy -->
    <defs>
     <path d="M 52 44.1875 
Q 55.375 50.25 60.0625 53.125 
Q 64.75 56 71.09375 56 
Q 79.640625 56 84.28125 50.015625 
Q 88.921875 44.046875 88.921875 33.015625 
L 88.921875 0 
L 79.890625 0 
L 79.890625 32.71875 
Q 79.890625 40.578125 77.09375 44.375 
Q 74.3125 48.1875 68.609375 48.1875 
Q 61.625 48.1875 57.5625 43.546875 
Q 53.515625 38.921875 53.515625 30.90625 
L 53.515625 0 
L 44.484375 0 
L 44.484375 32.71875 
Q 44.484375 40.625 41.703125 44.40625 
Q 38.921875 48.1875 33.109375 48.1875 
Q 26.21875 48.1875 22.15625 43.53125 
Q 18.109375 38.875 18.109375 30.90625 
L 18.109375 0 
L 9.078125 0 
L 9.078125 54.6875 
L 18.109375 54.6875 
L 18.109375 46.1875 
Q 21.1875 51.21875 25.484375 53.609375 
Q 29.78125 56 35.6875 56 
Q 41.65625 56 45.828125 52.96875 
Q 50 49.953125 52 44.1875 
z
" id="DejaVuSans-6d"/>
     <path d="M 45.40625 46.390625 
L 45.40625 75.984375 
L 54.390625 75.984375 
L 54.390625 0 
L 45.40625 0 
L 45.40625 8.203125 
Q 42.578125 3.328125 38.25 0.953125 
Q 33.9375 -1.421875 27.875 -1.421875 
Q 17.96875 -1.421875 11.734375 6.484375 
Q 5.515625 14.40625 5.515625 27.296875 
Q 5.515625 40.1875 11.734375 48.09375 
Q 17.96875 56 27.875 56 
Q 33.9375 56 38.25 53.625 
Q 42.578125 51.265625 45.40625 46.390625 
z
M 14.796875 27.296875 
Q 14.796875 17.390625 18.875 11.75 
Q 22.953125 6.109375 30.078125 6.109375 
Q 37.203125 6.109375 41.296875 11.75 
Q 45.40625 17.390625 45.40625 27.296875 
Q 45.40625 37.203125 41.296875 42.84375 
Q 37.203125 48.484375 30.078125 48.484375 
Q 22.953125 48.484375 18.875 42.84375 
Q 14.796875 37.203125 14.796875 27.296875 
z
" id="DejaVuSans-64"/>
     <path d="M 9.421875 75.984375 
L 18.40625 75.984375 
L 18.40625 0 
L 9.421875 0 
z
" id="DejaVuSans-6c"/>
     <path id="DejaVuSans-20"/>
    </defs>
    <g transform="translate(173.738438 28.56)scale(0.12 -0.12)">
     <use xlink:href="#DejaVuSans-6d"/>
     <use x="97.412109" xlink:href="#DejaVuSans-6f"/>
     <use x="158.59375" xlink:href="#DejaVuSans-64"/>
     <use x="222.070312" xlink:href="#DejaVuSans-65"/>
     <use x="283.59375" xlink:href="#DejaVuSans-6c"/>
     <use x="311.376953" xlink:href="#DejaVuSans-20"/>
     <use x="343.164062" xlink:href="#DejaVuSans-61"/>
     <use x="404.443359" xlink:href="#DejaVuSans-63"/>
     <use x="459.423828" xlink:href="#DejaVuSans-63"/>
     <use x="514.404297" xlink:href="#DejaVuSans-75"/>
     <use x="577.783203" xlink:href="#DejaVuSans-72"/>
     <use x="618.896484" xlink:href="#DejaVuSans-61"/>
     <use x="680.175781" xlink:href="#DejaVuSans-63"/>
     <use x="735.15625" xlink:href="#DejaVuSans-79"/>
    </g>
   </g>
   <g id="legend_1">
    <g id="patch_7">
     <path d="M 326.525 134.181187 
L 381.8 134.181187 
Q 383.8 134.181187 383.8 132.181187 
L 383.8 89.146812 
Q 383.8 87.146812 381.8 87.146812 
L 326.525 87.146812 
Q 324.525 87.146812 324.525 89.146812 
L 324.525 132.181187 
Q 324.525 134.181187 326.525 134.181187 
z
" style="fill:#ffffff;opacity:0.8;stroke:#cccccc;stroke-linejoin:miter;"/>
    </g>
    <g id="line2d_19">
     <path d="M 328.525 95.24525 
L 348.525 95.24525 
" style="fill:none;stroke:#0000ff;stroke-linecap:square;stroke-width:1.5;"/>
    </g>
    <g id="line2d_20"/>
    <g id="text_16">
     <!-- train -->
     <defs>
      <path d="M 18.3125 70.21875 
L 18.3125 54.6875 
L 36.8125 54.6875 
L 36.8125 47.703125 
L 18.3125 47.703125 
L 18.3125 18.015625 
Q 18.3125 11.328125 20.140625 9.421875 
Q 21.96875 7.515625 27.59375 7.515625 
L 36.8125 7.515625 
L 36.8125 0 
L 27.59375 0 
Q 17.1875 0 13.234375 3.875 
Q 9.28125 7.765625 9.28125 18.015625 
L 9.28125 47.703125 
L 2.6875 47.703125 
L 2.6875 54.6875 
L 9.28125 54.6875 
L 9.28125 70.21875 
z
" id="DejaVuSans-74"/>
      <path d="M 9.421875 54.6875 
L 18.40625 54.6875 
L 18.40625 0 
L 9.421875 0 
z
M 9.421875 75.984375 
L 18.40625 75.984375 
L 18.40625 64.59375 
L 9.421875 64.59375 
z
" id="DejaVuSans-69"/>
      <path d="M 54.890625 33.015625 
L 54.890625 0 
L 45.90625 0 
L 45.90625 32.71875 
Q 45.90625 40.484375 42.875 44.328125 
Q 39.84375 48.1875 33.796875 48.1875 
Q 26.515625 48.1875 22.3125 43.546875 
Q 18.109375 38.921875 18.109375 30.90625 
L 18.109375 0 
L 9.078125 0 
L 9.078125 54.6875 
L 18.109375 54.6875 
L 18.109375 46.1875 
Q 21.34375 51.125 25.703125 53.5625 
Q 30.078125 56 35.796875 56 
Q 45.21875 56 50.046875 50.171875 
Q 54.890625 44.34375 54.890625 33.015625 
z
" id="DejaVuSans-6e"/>
     </defs>
     <g transform="translate(356.525 98.74525)scale(0.1 -0.1)">
      <use xlink:href="#DejaVuSans-74"/>
      <use x="39.208984" xlink:href="#DejaVuSans-72"/>
      <use x="80.322266" xlink:href="#DejaVuSans-61"/>
      <use x="141.601562" xlink:href="#DejaVuSans-69"/>
      <use x="169.384766" xlink:href="#DejaVuSans-6e"/>
     </g>
    </g>
    <g id="line2d_21">
     <path d="M 328.525 109.923375 
L 348.525 109.923375 
" style="fill:none;stroke:#ff0000;stroke-linecap:square;stroke-width:1.5;"/>
    </g>
    <g id="line2d_22"/>
    <g id="text_17">
     <!-- val -->
     <defs>
      <path d="M 2.984375 54.6875 
L 12.5 54.6875 
L 29.59375 8.796875 
L 46.6875 54.6875 
L 56.203125 54.6875 
L 35.6875 0 
L 23.484375 0 
z
" id="DejaVuSans-76"/>
     </defs>
     <g transform="translate(356.525 113.423375)scale(0.1 -0.1)">
      <use xlink:href="#DejaVuSans-76"/>
      <use x="59.179688" xlink:href="#DejaVuSans-61"/>
      <use x="120.458984" xlink:href="#DejaVuSans-6c"/>
     </g>
    </g>
    <g id="line2d_23">
     <path d="M 328.525 124.6015 
L 348.525 124.6015 
" style="fill:none;stroke:#008000;stroke-linecap:square;stroke-width:1.5;"/>
    </g>
    <g id="line2d_24"/>
    <g id="text_18">
     <!-- test -->
     <defs>
      <path d="M 44.28125 53.078125 
L 44.28125 44.578125 
Q 40.484375 46.53125 36.375 47.5 
Q 32.28125 48.484375 27.875 48.484375 
Q 21.1875 48.484375 17.84375 46.4375 
Q 14.5 44.390625 14.5 40.28125 
Q 14.5 37.15625 16.890625 35.375 
Q 19.28125 33.59375 26.515625 31.984375 
L 29.59375 31.296875 
Q 39.15625 29.25 43.1875 25.515625 
Q 47.21875 21.78125 47.21875 15.09375 
Q 47.21875 7.46875 41.1875 3.015625 
Q 35.15625 -1.421875 24.609375 -1.421875 
Q 20.21875 -1.421875 15.453125 -0.5625 
Q 10.6875 0.296875 5.421875 2 
L 5.421875 11.28125 
Q 10.40625 8.6875 15.234375 7.390625 
Q 20.0625 6.109375 24.8125 6.109375 
Q 31.15625 6.109375 34.5625 8.28125 
Q 37.984375 10.453125 37.984375 14.40625 
Q 37.984375 18.0625 35.515625 20.015625 
Q 33.0625 21.96875 24.703125 23.78125 
L 21.578125 24.515625 
Q 13.234375 26.265625 9.515625 29.90625 
Q 5.8125 33.546875 5.8125 39.890625 
Q 5.8125 47.609375 11.28125 51.796875 
Q 16.75 56 26.8125 56 
Q 31.78125 56 36.171875 55.265625 
Q 40.578125 54.546875 44.28125 53.078125 
z
" id="DejaVuSans-73"/>
     </defs>
     <g transform="translate(356.525 128.1015)scale(0.1 -0.1)">
      <use xlink:href="#DejaVuSans-74"/>
      <use x="39.208984" xlink:href="#DejaVuSans-65"/>
      <use x="100.732422" xlink:href="#DejaVuSans-73"/>
      <use x="152.832031" xlink:href="#DejaVuSans-74"/>
     </g>
    </g>
   </g>
  </g>
 </g>
 <defs>
  <clipPath id="pe9ee0307e9">
   <rect height="217.44" width="334.8" x="54" y="34.56"/>
  </clipPath>
 </defs>
</svg>
